<svg width="18" height="18" viewBox="0 0 18 18" fill="none" xmlns="http://www.w3.org/2000/svg">
<path d="M2.09991 3.89988L5.24991 5.99988L8.38941 1.60488C8.45879 1.50766 8.55036 1.42841 8.65656 1.37373C8.76276 1.31906 8.88044 1.29053 8.99991 1.29053C9.11939 1.29053 9.23706 1.31906 9.34326 1.37373C9.44946 1.42841 9.54104 1.50766 9.61041 1.60488L12.7499 5.99988L15.8999 3.89988C16.0192 3.82056 16.1586 3.77703 16.3017 3.77443C16.4449 3.77183 16.5858 3.81026 16.7078 3.8852C16.8298 3.96012 16.9279 4.06842 16.9903 4.19728C17.0527 4.32614 17.077 4.47018 17.0602 4.61238L15.8279 15.0876C15.8064 15.2701 15.7187 15.4382 15.5815 15.5603C15.4441 15.6824 15.2668 15.7499 15.0832 15.7499H2.91666C2.73297 15.7499 2.55566 15.6824 2.41839 15.5603C2.28111 15.4382 2.19341 15.2701 2.17191 15.0876L0.939664 4.61163C0.923014 4.46949 0.947381 4.32556 1.00988 4.19682C1.07238 4.06808 1.17041 3.9599 1.2924 3.88508C1.41438 3.81024 1.55523 3.77187 1.69832 3.7745C1.8414 3.77712 1.98075 3.82063 2.09991 3.89988ZM8.99991 11.2499C9.39771 11.2499 9.77924 11.0918 10.0606 10.8105C10.3419 10.5292 10.4999 10.1477 10.4999 9.74988C10.4999 9.35207 10.3419 8.97055 10.0606 8.68923C9.77924 8.4079 9.39771 8.24988 8.99991 8.24988C8.60211 8.24988 8.22059 8.4079 7.93926 8.68923C7.65794 8.97055 7.49991 9.35207 7.49991 9.74988C7.49991 10.1477 7.65794 10.5292 7.93926 10.8105C8.22059 11.0918 8.60211 11.2499 8.99991 11.2499Z" fill="black"/>
</svg>
