<svg width="30" height="30" viewBox="0 0 30 30" fill="none" xmlns="http://www.w3.org/2000/svg">
<g clip-path="url(#clip0_504_2618)">
<rect width="30" height="30" rx="15" fill="url(#paint0_linear_504_2618)" fill-opacity="0.12"/>
<g clip-path="url(#clip1_504_2618)">
<path d="M15 30C23.2843 30 30 23.2843 30 15C30 6.71573 23.2843 0 15 0C6.71573 0 0 6.71573 0 15C0 23.2843 6.71573 30 15 30Z" fill="#F0F0F0"/>
<path d="M20.2174 15.0001C20.2174 16.3044 17.8815 19.5653 15.0001 19.5653C12.1186 19.5653 9.78271 16.3044 9.78271 15.0001C9.78271 12.1186 12.1186 9.78271 15.0001 9.78271C17.8815 9.78271 20.2174 12.1186 20.2174 15.0001Z" fill="#D80027"/>
<path d="M20.2174 15C20.2174 17.8815 17.8815 20.2174 15.0001 20.2174C12.1186 20.2174 9.78271 17.8815 9.78271 15" fill="#0052B4"/>
<path d="M20.5298 19.6118L21.913 18.2286L22.8352 19.1507L21.452 20.534L20.5298 19.6118Z" fill="white"/>
<path d="M18.2236 21.9175L19.6069 20.5342L20.5291 21.4564L19.1458 22.8397L18.2236 21.9175Z" fill="white"/>
<path d="M23.2964 22.3779L24.6796 20.9947L25.6018 21.9169L24.2186 23.3001L23.2964 22.3779Z" fill="white"/>
<path d="M20.9905 24.6841L22.3737 23.3008L23.2959 24.223L21.9127 25.6063L20.9905 24.6841Z" fill="white"/>
<path d="M21.9131 20.9951L23.2963 19.6119L24.2185 20.534L22.8353 21.9173L21.9131 20.9951Z" fill="white"/>
<path d="M19.6077 23.3008L20.9909 21.9175L21.9131 22.8397L20.5298 24.223L19.6077 23.3008Z" fill="white"/>
<path d="M23.3025 10.3906L19.6138 6.70195L20.536 5.77977L24.2247 9.46845L23.3025 10.3906Z" fill="white"/>
<path d="M19.6133 9.46875L18.23 8.0855L19.1522 7.16336L20.5354 8.54661L19.6133 9.46875Z" fill="white"/>
<path d="M21.9187 11.7749L20.5355 10.3917L21.4576 9.46952L22.8408 10.8528L21.9187 11.7749Z" fill="white"/>
<path d="M22.3794 6.70166L20.9961 5.31841L21.9183 4.39623L23.3016 5.77948L22.3794 6.70166Z" fill="white"/>
<path d="M24.6863 9.0083L23.303 7.62505L24.2252 6.70287L25.6085 8.08612L24.6863 9.0083Z" fill="white"/>
<path d="M5.31763 20.9927L9.0063 24.6814L8.08412 25.6035L4.39545 21.9149L5.31763 20.9927Z" fill="white"/>
<path d="M9.0061 21.9141L10.3894 23.2973L9.46721 24.2194L8.08397 22.8362L9.0061 21.9141Z" fill="white"/>
<path d="M6.70044 19.6089L8.08369 20.9921L7.16151 21.9143L5.77826 20.5311L6.70044 19.6089Z" fill="white"/>
<path d="M8.08398 18.2251L11.7727 21.9138L10.8505 22.836L7.16181 19.1473L8.08398 18.2251Z" fill="white"/>
<path d="M9.00586 5.31592L5.31718 9.00459L4.395 8.08241L8.08368 4.39374L9.00586 5.31592Z" fill="white"/>
<path d="M10.3892 6.69873L6.70048 10.3874L5.7783 9.46523L9.46698 5.77655L10.3892 6.69873Z" fill="white"/>
<path d="M11.7737 8.08301L8.08501 11.7717L7.16287 10.8495L10.8515 7.16087L11.7737 8.08301Z" fill="white"/>
</g>
</g>
<defs>
<linearGradient id="paint0_linear_504_2618" x1="15" y1="30" x2="15" y2="0" gradientUnits="userSpaceOnUse">
<stop stop-color="#FF0845"/>
<stop offset="1" stop-color="#FFB099"/>
</linearGradient>
<clipPath id="clip0_504_2618">
<rect width="30" height="30" rx="15" fill="white"/>
</clipPath>
<clipPath id="clip1_504_2618">
<rect width="30" height="30" fill="white"/>
</clipPath>
</defs>
</svg>
