<svg width="176" height="215" viewBox="0 0 176 215" fill="none" xmlns="http://www.w3.org/2000/svg">
<path d="M87.3794 129.835V0L96.2576 62.3417L87.3794 129.835Z" fill="url(#paint0_radial_588_183)"/>
<path d="M87.3794 129.835V0L78.5012 62.3417L87.3794 129.835Z" fill="url(#paint1_linear_588_183)"/>
<path d="M87.3794 0C87.4928 4.84412 87.5414 9.68824 87.5738 14.5162L87.6386 28.9999L87.5738 43.5161L87.509 50.7741L87.3794 57.9998L87.2498 50.7741L87.185 43.5161L87.1202 28.9999L87.185 14.5162C87.2174 9.68824 87.266 4.84412 87.3794 0Z" fill="white"/>
<path d="M87.5229 214.584C39.2478 214.584 0 175.336 0 127.061C0 78.7859 39.2478 39.5151 87.5229 39.5151C135.798 39.5151 175.046 78.7859 175.046 127.061C175.046 175.336 135.798 214.584 87.5229 214.584Z" fill="url(#paint2_linear_588_183)"/>
<path d="M15.6948 127.061C15.6948 166.722 47.84 198.89 87.5232 198.89C127.206 198.89 159.352 166.722 159.352 127.061C159.352 87.3781 127.206 55.2329 87.5232 55.2329C47.84 55.2329 15.6948 87.3781 15.6948 127.061Z" fill="black"/>
<defs>
<radialGradient id="paint0_radial_588_183" cx="0" cy="0" r="1" gradientUnits="userSpaceOnUse" gradientTransform="translate(26906.5 27928.6) scale(18436.2)">
<stop stop-color="#FFE680"/>
<stop offset="0.71" stop-color="#C18C0E"/>
<stop offset="1" stop-color="#FFE680"/>
</radialGradient>
<linearGradient id="paint1_linear_588_183" x1="119.838" y1="32.4588" x2="54.9206" y2="97.3765" gradientUnits="userSpaceOnUse">
<stop offset="0.0894782" stop-color="#FDC83A"/>
<stop offset="0.253047" stop-color="#FDECBA"/>
<stop offset="0.99481" stop-color="#F1B42D"/>
</linearGradient>
<linearGradient id="paint2_linear_588_183" x1="87.5229" y1="39.5151" x2="87.5229" y2="214.584" gradientUnits="userSpaceOnUse">
<stop offset="0.0894782" stop-color="#FDC83A"/>
<stop offset="0.253047" stop-color="#FDECBA"/>
<stop offset="0.99481" stop-color="#F1B42D"/>
</linearGradient>
</defs>
</svg>
