<svg width="24" height="24" viewBox="0 0 24 24" fill="none" xmlns="http://www.w3.org/2000/svg">
<path d="M22.3349 11.0177C22.3351 11.2157 22.2961 11.4117 22.2201 11.5945C22.1442 11.7772 22.0328 11.9432 21.8924 12.0827L15.4499 18.5177C15.2413 18.7269 14.9755 18.8698 14.686 18.9285C14.3965 18.9872 14.0961 18.9591 13.8224 18.8477C13.5473 18.7347 13.312 18.5425 13.1464 18.2954C12.9808 18.0484 12.8924 17.7577 12.8924 17.4602V14.7977C11.1241 14.9119 9.41348 15.4718 7.91982 16.4252C6.42616 17.3785 5.19807 18.6944 4.34993 20.2502C4.22883 20.4771 4.04829 20.6668 3.82766 20.7989C3.60702 20.931 3.3546 21.0006 3.09743 21.0002C2.97539 21.0153 2.85197 21.0153 2.72993 21.0002C2.41736 20.9254 2.1395 20.7466 1.9419 20.4932C1.7443 20.2397 1.63871 19.9266 1.64243 19.6052V19.3052C1.63645 16.2484 2.79727 13.3045 4.88796 11.0745C6.97865 8.84442 9.84158 7.49628 12.8924 7.30523V4.58273C12.8922 4.28634 12.9798 3.99652 13.1441 3.74986C13.3084 3.5032 13.5422 3.31075 13.8158 3.19681C14.0894 3.08287 14.3907 3.05254 14.6815 3.10966C14.9723 3.16678 15.2397 3.30878 15.4499 3.51773L21.8924 9.96023C22.1741 10.2402 22.3333 10.6206 22.3349 11.0177Z" fill="white"/>
</svg>
