<svg width="30" height="30" viewBox="0 0 30 30" fill="none" xmlns="http://www.w3.org/2000/svg">
<g clip-path="url(#clip0_504_2609)">
<rect width="30" height="30" rx="15" fill="url(#paint0_linear_504_2609)" fill-opacity="0.12"/>
<g clip-path="url(#clip1_504_2609)">
<path d="M15 30C23.2843 30 30 23.2843 30 15C30 6.71573 23.2843 0 15 0C6.71573 0 0 6.71573 0 15C0 23.2843 6.71573 30 15 30Z" fill="#F0F0F0"/>
<path d="M15 21.522C18.6018 21.522 21.5217 18.6021 21.5217 15.0002C21.5217 11.3984 18.6018 8.47852 15 8.47852C11.3981 8.47852 8.47827 11.3984 8.47827 15.0002C8.47827 18.6021 11.3981 21.522 15 21.522Z" fill="#D80027"/>
</g>
</g>
<defs>
<linearGradient id="paint0_linear_504_2609" x1="15" y1="30" x2="15" y2="0" gradientUnits="userSpaceOnUse">
<stop stop-color="#FF0845"/>
<stop offset="1" stop-color="#FFB099"/>
</linearGradient>
<clipPath id="clip0_504_2609">
<rect width="30" height="30" rx="15" fill="white"/>
</clipPath>
<clipPath id="clip1_504_2609">
<rect width="30" height="30" fill="white"/>
</clipPath>
</defs>
</svg>
