<svg width="30" height="30" viewBox="0 0 30 30" fill="none" xmlns="http://www.w3.org/2000/svg">
<g clip-path="url(#clip0_504_2718)">
<rect width="30" height="30" rx="15" fill="url(#paint0_linear_504_2718)" fill-opacity="0.12"/>
<g clip-path="url(#clip1_504_2718)">
<path d="M14.5 31C23.0604 31 30 24.0604 30 15.5C30 6.93958 23.0604 0 14.5 0C5.93958 0 -1 6.93958 -1 15.5C-1 24.0604 5.93958 31 14.5 31Z" fill="#F0F0F0"/>
<path d="M14.4999 30.9999C19.1982 30.9999 23.4073 28.91 26.2498 25.6094H2.74146C5.59259 28.91 9.80171 30.9999 14.4999 30.9999Z" fill="#003893"/>
<path d="M30 15.5C30 6.94056 23.0594 0 14.5 0C5.94056 0 -0.999998 6.94056 -0.999998 15.5C-1.00074 16.8655 -0.821226 18.2252 -0.466109 19.5438H29.4661C29.8131 18.2547 30 16.9002 30 15.5Z" fill="#003893"/>
<path d="M0.231445 21.5649C0.530251 22.2667 0.879862 22.9427 1.27339 23.5868H27.7233C28.12 22.9394 28.4686 22.2636 28.7661 21.5649H0.231445Z" fill="#D80027"/>
<path fill-rule="evenodd" clip-rule="evenodd" d="M10.3373 17.2836L10.079 16.5112L9.84995 17.2836H9.03792L9.69495 17.7607L9.43661 18.5331L10.0936 18.0561L10.7507 18.5331L10.4923 17.7607L11.1494 17.2836H10.3373ZM10.3373 27.3931L10.079 26.6207L9.84995 27.3931H9.03792L9.69495 27.8701L9.43661 28.6426L10.0936 28.1655L10.7507 28.6426L10.4923 27.8701L11.1494 27.3931H10.3373ZM5.37389 23.2021L5.63222 23.9745H6.44425L5.78722 24.4515L6.04556 25.224L5.38853 24.7469L4.7315 25.224L4.98295 24.4515L4.32592 23.9745H5.13795L5.37389 23.2021ZM7.43883 18.2946L7.1805 17.5222L6.94456 18.2946H6.13253L6.78956 18.7716L6.53811 19.5441L7.19514 19.067L7.85217 19.5441L7.59383 18.7716L8.25086 18.2946H7.43883ZM4.31128 20.7014H5.11383L5.37217 19.929L5.6305 20.7014H6.44253L5.7855 21.1785L6.04383 21.9509L5.38681 21.4738L4.72978 21.9509L4.98811 21.1785L4.31128 20.7014ZM6.77233 26.7111L6.514 27.4835L7.20031 27.0065L7.85733 27.4835L7.599 26.7111L8.25603 26.234H7.444L7.18567 25.4616L6.92734 26.234H6.11531L6.77233 26.7111ZM14.7841 23.2012L14.5258 23.9736H13.7138L14.3708 24.4507L14.1124 25.2231L14.7695 24.746L15.4265 25.2231L15.1682 24.4507L15.8252 23.9736H15.0132L14.7841 23.2012ZM12.7174 18.2946L12.9758 17.5222L13.2048 18.2946H14.0169L13.3598 18.7716L13.6182 19.5441L12.9611 19.067L12.3041 19.5441L12.5624 18.7716L11.9054 18.2946H12.7174ZM15.8373 20.7014H15.0252L14.7669 19.929L14.5086 20.7014H13.6965L14.3536 21.1785L14.0952 21.9509L14.7523 21.4738L15.4093 21.9509L15.1509 21.1785L15.8373 20.7014ZM13.3745 26.7111L13.6328 27.4835L12.9465 27.0065L12.2895 27.4835L12.5478 26.7111L11.8908 26.234H12.7028L12.9611 25.4616L13.2195 26.234H14.0315L13.3745 26.7111Z" fill="#FFDA44"/>
</g>
</g>
<defs>
<linearGradient id="paint0_linear_504_2718" x1="15" y1="30" x2="15" y2="0" gradientUnits="userSpaceOnUse">
<stop stop-color="#FF0845"/>
<stop offset="1" stop-color="#FFB099"/>
</linearGradient>
<clipPath id="clip0_504_2718">
<rect width="30" height="30" rx="15" fill="white"/>
</clipPath>
<clipPath id="clip1_504_2718">
<rect width="31" height="31" fill="white" transform="translate(-1)"/>
</clipPath>
</defs>
</svg>
