<svg width="24" height="24" viewBox="0 0 24 24" fill="none" xmlns="http://www.w3.org/2000/svg">
<path d="M7.875 1.5C6.6345 1.5 5.625 2.5095 5.625 3.75V20.25C5.625 21.4905 6.6345 22.5 7.875 22.5H16.125C17.3655 22.5 18.375 21.4905 18.375 20.25V3.75C18.375 2.5095 17.3655 1.5 16.125 1.5H7.875ZM13.125 20.25H10.875C10.4602 20.25 10.125 19.9147 10.125 19.5C10.125 19.0853 10.4602 18.75 10.875 18.75H13.125C13.5398 18.75 13.875 19.0853 13.875 19.5C13.875 19.9147 13.5398 20.25 13.125 20.25Z" fill="black"/>
<path d="M21.4999 11.9949L22.3931 10.5069C22.5356 10.2699 22.5356 9.97216 22.3931 9.73516L21.5006 8.24791L22.3931 6.76216C22.6061 6.40741 22.4914 5.94691 22.1359 5.73316C21.7804 5.52016 21.3199 5.63416 21.1069 5.99041L19.9819 7.86241C19.8394 8.09941 19.8394 8.39716 19.9819 8.63416L20.8751 10.1214L19.9819 11.6094C19.8394 11.8464 19.8394 12.1442 19.9819 12.3812L20.8751 13.8699L19.9819 15.3617C19.8394 15.5987 19.8394 15.8949 19.9819 16.1319L21.1069 18.0099C21.2471 18.2447 21.4961 18.3744 21.7504 18.3744C21.8816 18.3744 22.0144 18.3399 22.1351 18.2672C22.4906 18.0549 22.6061 17.5944 22.3931 17.2389L21.4999 15.7464L22.3931 14.2547C22.5356 14.0177 22.5356 13.7207 22.3931 13.4837L21.4999 11.9949Z" fill="black"/>
<path d="M1.60744 14.2658L2.49994 15.753L1.60744 17.2388C1.39444 17.5935 1.50919 18.054 1.86469 18.2678C1.98469 18.3405 2.11744 18.375 2.24944 18.375C2.50444 18.375 2.75269 18.2453 2.89294 18.0113L4.01794 16.1393C4.16044 15.9023 4.16044 15.6045 4.01794 15.3675L3.12469 13.8803L4.01794 12.3923C4.16044 12.1553 4.16044 11.8575 4.01794 11.6205L3.12469 10.1318L4.01794 8.64001C4.16044 8.40301 4.16044 8.10676 4.01794 7.86976L2.89294 5.99176C2.68144 5.63401 2.22019 5.51851 1.86469 5.73226C1.50994 5.94451 1.39369 6.40501 1.60744 6.76051L2.50069 8.25301L1.60744 9.74476C1.46494 9.98176 1.46494 10.2788 1.60744 10.5158L2.50069 12.0045L1.60744 13.4925C1.46419 13.731 1.46419 14.028 1.60744 14.2658Z" fill="black"/>
</svg>
