<svg width="30" height="30" viewBox="0 0 30 30" fill="none" xmlns="http://www.w3.org/2000/svg">
<g clip-path="url(#clip0_504_2600)">
<rect width="30" height="30" rx="15" fill="url(#paint0_linear_504_2600)" fill-opacity="0.12"/>
<g clip-path="url(#clip1_504_2600)">
<path d="M15 30C23.284 30 30 23.2834 30 15C30 6.7166 23.284 0 15 0C6.71602 0 0 6.7166 0 15C0 23.2834 6.71602 30 15 30Z" fill="#D80027"/>
<path fill-rule="evenodd" clip-rule="evenodd" d="M6.7876 14.9998C6.78899 15.7333 6.98055 16.4539 7.34358 17.0913C7.70661 17.7287 8.22871 18.2611 8.8589 18.6364C9.48909 19.0118 10.2059 19.2173 10.9392 19.233C11.6725 19.2487 12.3974 19.0739 13.0431 18.7258C12.3086 19.4419 11.3793 19.9256 10.3714 20.1162C9.36342 20.3068 8.32164 20.1959 7.37641 19.7974C6.43118 19.3989 5.62448 18.7305 5.05726 17.8757C4.49004 17.021 4.1875 16.018 4.1875 14.9922C4.1875 13.9664 4.49004 12.9634 5.05726 12.1086C5.62448 11.2539 6.43118 10.5855 7.37641 10.187C8.32164 9.78844 9.36342 9.67755 10.3714 9.86817C11.3793 10.0588 12.3086 10.5424 13.0431 11.2586C12.4201 10.9339 11.7287 10.7626 11.0263 10.7588C9.90199 10.7597 8.82405 11.2069 8.02928 12.0021C7.23451 12.7973 6.78791 13.8755 6.7876 14.9998ZM15.6165 13.9498L14.386 12.2506V14.3506L12.3938 15.0004L14.3737 15.6443V17.7355L15.6071 16.0439L17.6069 16.6938L16.3765 14.9945L17.6069 13.3029L15.6165 13.9498Z" fill="#F0F0F0"/>
</g>
</g>
<defs>
<linearGradient id="paint0_linear_504_2600" x1="15" y1="30" x2="15" y2="0" gradientUnits="userSpaceOnUse">
<stop stop-color="#FF0845"/>
<stop offset="1" stop-color="#FFB099"/>
</linearGradient>
<clipPath id="clip0_504_2600">
<rect width="30" height="30" rx="15" fill="white"/>
</clipPath>
<clipPath id="clip1_504_2600">
<rect width="30" height="30" fill="white"/>
</clipPath>
</defs>
</svg>
