<svg width="30" height="30" viewBox="0 0 30 30" fill="none" xmlns="http://www.w3.org/2000/svg">
<g clip-path="url(#clip0_504_2588)">
<rect width="30" height="30" rx="15" fill="url(#paint0_linear_504_2588)" fill-opacity="0.12"/>
<g clip-path="url(#clip1_504_2588)">
<path d="M0 15.0001C0 21.4495 4.07062 26.9477 9.78252 29.0671L11.0869 15.0001L9.78252 0.933105C4.07062 3.05256 0 8.55064 0 15.0001Z" fill="#6DA544"/>
<path d="M30 15C30 6.71578 23.2842 0 15 0C13.1651 0 11.4075 0.330059 9.78247 0.932988V29.067C11.4075 29.67 13.1651 30 15 30C23.2842 30 30 23.2842 30 15Z" fill="#D80027"/>
<path d="M9.78255 20.2174C12.664 20.2174 14.9999 17.8815 14.9999 15.0001C14.9999 12.1186 12.664 9.78271 9.78255 9.78271C6.90108 9.78271 4.56519 12.1186 4.56519 15.0001C4.56519 17.8815 6.90108 20.2174 9.78255 20.2174Z" fill="#FFDA44"/>
<path d="M6.8479 12.3911V15.652C6.8479 17.2728 8.16181 18.5868 9.78269 18.5868C11.4036 18.5868 12.7175 17.2729 12.7175 15.652V12.3911H6.8479Z" fill="#D80027"/>
<path d="M9.78272 16.6302C9.24331 16.6302 8.80444 16.1914 8.80444 15.652V14.3477H10.7609V15.652C10.7609 16.1914 10.3221 16.6302 9.78272 16.6302Z" fill="#F0F0F0"/>
</g>
</g>
<defs>
<linearGradient id="paint0_linear_504_2588" x1="15" y1="30" x2="15" y2="0" gradientUnits="userSpaceOnUse">
<stop stop-color="#FF0845"/>
<stop offset="1" stop-color="#FFB099"/>
</linearGradient>
<clipPath id="clip0_504_2588">
<rect width="30" height="30" rx="15" fill="white"/>
</clipPath>
<clipPath id="clip1_504_2588">
<rect width="30" height="30" fill="white"/>
</clipPath>
</defs>
</svg>
