<svg width="30" height="30" viewBox="0 0 30 30" fill="none" xmlns="http://www.w3.org/2000/svg">
<g clip-path="url(#clip0_504_2658)">
<rect width="30" height="30" rx="15" fill="url(#paint0_linear_504_2658)" fill-opacity="0.12"/>
<g clip-path="url(#clip1_504_2658)">
<path d="M14.7302 -2.66016C23.9322 -2.66016 31.3912 4.79895 31.3912 14.0009C31.3912 23.2014 23.9322 30.6605 14.7302 30.6605C5.52832 30.6605 -1.93066 23.2015 -1.93066 14.001C-1.93066 4.79895 5.52832 -2.66016 14.7302 -2.66016Z" fill="#D6D4D1"/>
<mask id="mask0_504_2658" style="mask-type:luminance" maskUnits="userSpaceOnUse" x="-2" y="-3" width="33" height="34">
<path d="M14.7302 -2.25488C23.7081 -2.25488 30.9851 5.02274 30.9851 14.0009C30.9851 22.9774 23.7081 30.2559 14.7302 30.2559C5.75223 30.2559 -1.52539 22.9774 -1.52539 14.0009C-1.52539 5.02274 5.75235 -2.25488 14.7302 -2.25488Z" fill="white"/>
</mask>
<g mask="url(#mask0_504_2658)">
<path d="M-9.6438 -2.25195H39.1203V30.2574H-9.6438V-2.25195Z" fill="#026C34"/>
<path d="M2.02842 8.92736C2.02842 8.92736 2.32385 8.51018 2.32385 8.11604C2.32385 7.71986 2.08299 7.78631 1.99279 7.85216C1.90247 7.92077 1.72327 8.09709 1.81635 8.20492C1.90667 8.31203 2.00539 8.123 2.06908 8.123C2.13205 8.123 2.14884 8.15586 2.14884 8.32259C2.14884 8.48847 2.02842 8.92736 2.02842 8.92736Z" fill="#2B2B2B"/>
<path d="M1.31861 9.00654C1.31861 9.00654 1.33756 11.0504 1.78484 11.0504C1.78484 11.0504 1.98299 11.0504 2.03901 10.5199C2.09778 9.98938 2.32664 8.66217 2.88451 8.66217C3.44238 8.66217 2.60515 9.73593 3.04764 10.6761C3.04764 10.6761 3.2086 11.0246 3.51099 11.0246C3.51099 11.0246 3.43602 9.60579 3.34019 9.1326C3.24567 8.65666 3.29892 8.65666 3.29892 8.65666C3.29892 8.65666 3.08398 8.39553 3.22264 8.16032C3.36334 7.9251 3.43194 7.83334 3.56281 8.03845C3.68887 8.245 4.14874 8.89595 3.72869 9.11929L3.90225 10.9602C3.90225 10.9602 4.34258 10.6823 4.23619 10.1713C4.13051 9.65821 3.90645 8.90015 4.17597 8.49977C4.17597 8.49977 4.54133 8.73642 4.54133 9.10106C4.54133 9.46641 4.51266 10.919 5.24685 10.919C5.97769 10.919 5.06765 9.29009 5.06765 8.99742C5.06765 8.99742 5.03335 8.91694 5.20835 8.7321C5.38335 8.54726 5.40434 8.47734 5.53808 8.61731C5.66966 8.75801 5.91328 9.00162 5.91328 9.24103C5.91328 9.48045 5.70817 9.37885 5.70817 9.37885C5.70817 9.37885 5.95538 10.1628 5.95538 10.6864C5.95538 11.2107 5.65155 11.6355 5.08948 11.6355C4.52741 11.6355 4.42102 10.9482 4.42102 10.9482C4.42102 10.9482 4.11024 11.4501 3.95131 11.5565L4.07174 13.858C4.07174 13.858 4.05699 14.2051 3.86663 14.3843C3.86663 14.3843 3.82453 14.4012 3.80918 14.1632C3.79166 13.9307 3.57252 11.814 3.57252 11.814C3.57252 11.814 2.58488 11.9848 2.58488 10.5211C2.58488 10.5211 2.59604 10.2789 2.62207 9.99334C2.65073 9.70979 2.61931 9.4032 2.52755 9.6293C2.43579 9.85612 2.40568 10.0585 2.26223 10.7808C2.11733 11.5005 1.93537 11.7027 1.71911 11.7027C1.50417 11.7027 1.10522 11.0419 1.10522 9.96539C1.10654 8.88407 1.31861 9.00654 1.31861 9.00654Z" fill="#2B2B2B"/>
<path d="M4.91025 7.9315C4.91025 7.9315 4.94455 8.33392 5.08945 8.33392C5.2371 8.33392 5.25677 8.05049 5.25677 8.05049C5.25677 8.05049 5.31423 8.10303 5.31423 8.28774C5.31423 8.47186 5.17701 8.54467 5.10204 8.54467C5.02647 8.54467 4.88578 8.46131 4.88578 8.37243C4.88578 8.37243 4.82005 8.5292 4.6177 8.5292C4.41679 8.5292 4.32935 8.28774 4.32935 8.14357C4.32935 7.99867 4.38812 7.87549 4.4343 7.87549C4.47976 7.87549 4.50159 8.08479 4.50159 8.1275C4.50159 8.17236 4.53721 8.31377 4.62333 8.31377C4.70946 8.31377 4.79414 8.23809 4.91025 7.9315Z" fill="#2B2B2B"/>
<path d="M1.29492 13.6082C1.29492 13.6082 1.99277 12.629 3.08128 12.3419C3.08128 12.3419 3.26888 12.2649 3.26888 12.4623C3.26888 12.6632 3.29479 12.6562 3.03786 12.7318C2.78454 12.8096 2.11044 13.0959 1.29492 13.6082Z" fill="#2B2B2B"/>
<path d="M9.36985 12.5444C9.36985 12.4541 9.36277 11.9397 9.27533 11.934C9.18789 11.9306 8.96383 12.1083 9.00581 12.1531C9.04707 12.2 9.19485 12.858 8.85108 12.858C8.50528 12.858 8.408 12.0166 8.408 12.0166C8.21692 12.5527 7.97187 12.9244 7.71291 12.9244C7.45598 12.9244 7.38737 12.5919 7.38737 12.5115C7.38737 12.4295 7.44759 12.0697 7.30833 12.0697C7.16763 12.0697 6.88276 12.3832 6.88276 12.3832L6.68881 9.60084C6.88276 9.81014 7.00031 9.65121 7.00031 9.45318C7.00031 9.25575 6.61324 8.22049 6.52292 8.063C6.4326 7.90971 6.2534 8.11062 6.10299 8.33672C5.9497 8.56354 6.12122 8.7756 6.12122 8.7756C6.12122 9.09334 6.16044 9.58824 6.27319 10.5675C6.38798 11.5482 6.48382 12.6429 6.48382 12.6429L6.11282 12.8628C6.11282 12.8628 5.87485 12.0542 5.23722 12.0542C4.60018 12.0542 4.6051 12.5933 4.6051 13.3898C4.6051 14.1871 5.83647 13.5732 5.83647 13.5732C5.83647 14.0961 5.07769 15.1532 4.06546 15.1532C3.05119 15.1532 3.30176 13.3787 3.30176 13.3787C2.71378 14.5889 3.07638 15.8209 4.04447 15.8209C5.01184 15.8209 5.89524 14.9221 6.10455 14.5021C6.31385 14.0807 6.22917 13.4304 6.22917 13.4304L6.51405 13.2652C6.51405 13.2652 6.58901 14.2305 6.45107 14.8632C6.31529 15.4918 5.02239 16.3724 3.94719 16.3724C2.87343 16.3724 2.74809 15.3671 2.74809 15.0649C2.74809 14.7596 2.81874 14.4096 2.81874 14.1828C2.81874 13.956 2.76272 13.8525 2.76272 13.8525C2.45614 14.2585 2.46585 15.2189 2.46585 15.2189C2.46585 17.0024 3.33175 17.064 3.86371 17.064C4.39567 17.064 5.24405 16.9576 6.2919 16.2297C7.33844 15.5017 6.93446 13.0958 6.93446 13.0958L7.01278 13.0104C7.01278 13.0104 7.00163 13.3612 7.52447 13.3612C8.04804 13.3612 8.30772 12.967 8.30772 12.967C8.51703 13.2883 8.80334 13.2883 8.80334 13.2883C9.41111 13.2885 9.36985 12.6361 9.36985 12.5444ZM5.24141 13.1366C4.98725 13.1366 4.94599 12.6705 5.1469 12.6705C5.34853 12.6705 5.60545 13.0359 5.60545 13.0359C5.60545 13.0359 5.49618 13.1366 5.24141 13.1366Z" fill="#2B2B2B"/>
<path d="M1.77637 14.5752C1.77637 14.5752 1.8547 14.9168 1.72324 15.2752C1.59298 15.6335 1.51393 16.9019 2.16212 16.0703C2.16212 16.0703 2.40573 16.9019 1.77505 16.9019C1.14294 16.9019 1.39219 15.5272 1.56431 15.0597C1.73571 14.592 1.77637 14.5752 1.77637 14.5752Z" fill="#2B2B2B"/>
<path d="M8.19038 14.3092C8.19038 14.3092 7.90479 14.4687 7.90479 14.1439C7.90479 13.8164 8.18546 13.8528 8.18546 13.8528C8.18546 13.8528 8.42835 13.8696 8.42835 14.34C8.42835 14.8104 8.14 15.0372 8.14 15.0372C8.14 15.0372 8.28358 14.5835 8.19038 14.3092Z" fill="#2B2B2B"/>
<path d="M9.60515 8.37352C9.60515 8.26641 9.56797 7.9248 9.30277 7.9248C9.03613 7.9248 8.77081 8.17897 8.77081 8.56184C8.77081 8.94411 8.9584 9.03155 8.9584 9.03155C8.44395 9.8533 6.645 10.871 7.81052 10.3679C8.97592 9.8617 9.24819 9.2297 9.24819 9.2297C9.64654 9.24865 9.419 8.93008 9.419 8.93008C9.419 8.93008 9.60515 8.4786 9.60515 8.37352ZM9.16903 8.69486C9.05904 8.60322 9.08915 8.49959 9.11925 8.42534C9.14936 8.34762 9.29425 8.27061 9.29425 8.41551C9.29437 8.56604 9.16903 8.69486 9.16903 8.69486Z" fill="#2B2B2B"/>
<path d="M9.30819 10.6922C9.30819 10.6922 9.27809 11.2901 8.78175 11.2901C8.28337 11.2901 8.37789 10.4955 8.8951 10.1231C8.8951 10.1231 8.98962 10.1147 8.87975 10.3163C8.77047 10.5172 8.55001 10.9932 8.8566 10.9932C9.16474 10.9919 9.30819 10.6922 9.30819 10.6922Z" fill="#2B2B2B"/>
<path d="M12.4309 8.32846C12.4309 8.32846 12.3245 8.24522 12.4274 8.1164C12.5296 7.98686 12.6255 8.00161 12.7227 8.23814C12.8222 8.47336 12.9048 8.98505 12.6815 9.54088C12.6815 9.53944 12.762 8.69526 12.4309 8.32846Z" fill="#2B2B2B"/>
<path d="M13.03 11.8689C13.03 11.8689 13.1546 12.3652 13.2919 12.3652C13.4284 12.3652 13.4515 11.8521 13.4515 11.8521C13.4515 11.8521 13.6566 12.2847 13.765 12.2847C13.8756 12.2847 13.8785 11.7017 13.8785 11.7017C13.8785 11.7017 14.0304 11.8521 14.0304 12.1672C14.0304 12.4829 13.8253 12.5332 13.7581 12.5332C13.6895 12.5332 13.5103 12.3869 13.5103 12.3869C13.5103 12.3869 13.4501 12.6564 13.252 12.6564C13.0574 12.6564 12.9167 12.2665 13.03 11.8689Z" fill="#2B2B2B"/>
<path d="M18.3632 8.08621C18.3632 8.08621 18.4808 7.83492 18.6166 8.00704C18.7523 8.17653 18.9036 8.52581 18.9036 8.90724C18.9036 9.29155 18.6627 9.46943 18.6627 9.46943C18.6627 9.46943 18.7692 8.80996 18.5186 8.56227C18.2709 8.31231 18.2624 8.28772 18.3632 8.08621Z" fill="#2B2B2B"/>
<path d="M18.4808 10.0357C18.4808 10.0357 18.5648 10.3255 18.6544 10.3255C18.7411 10.3255 18.8154 9.94814 18.8154 9.94814C18.8154 9.94814 18.9008 10.2806 19.0072 10.2806C19.1108 10.2806 19.2158 9.83887 19.2158 9.83887C19.2158 9.83887 19.2929 9.96421 19.2929 10.2462C19.2929 10.5269 19.136 10.5557 19.0926 10.5557C19.0506 10.5557 18.9316 10.5529 18.8518 10.394C18.8518 10.394 18.7747 10.5584 18.5929 10.5584C18.4193 10.5607 18.4024 10.2275 18.4808 10.0357Z" fill="#2B2B2B"/>
<path d="M26.4804 8.71235C26.4804 8.71235 26.5951 8.46107 26.7324 8.63043C26.8696 8.80123 27.0207 9.15196 27.0207 9.53339C27.0207 9.91494 26.7771 10.094 26.7771 10.094C26.7771 10.094 26.8836 9.43467 26.6371 9.18542C26.3851 8.93701 26.3767 8.91398 26.4804 8.71235Z" fill="#2B2B2B"/>
<path d="M15.5297 16.3614C15.5297 16.3614 15.9245 16.0142 16.1303 16.0142C16.3333 16.0142 16.1066 16.3782 16.1066 16.4846C16.1066 16.591 16.059 16.8177 16.3866 16.6582C16.7154 16.4985 17.0151 16.3782 17.0725 16.3977C17.1285 16.4229 16.5979 17.0193 16.1163 17.0193C15.6347 17.0193 15.8699 16.5056 15.8853 16.4342C15.9021 16.3669 15.9189 16.2633 15.6515 16.3879C15.3813 16.5069 15.5297 16.3614 15.5297 16.3614Z" fill="#2B2B2B"/>
<path d="M24.6601 16.0814C24.6601 16.0814 24.9682 16.0562 24.9682 16.2297C24.9682 16.4046 24.6727 16.6132 24.9261 16.6132C25.1836 16.6132 25.1725 16.8106 24.9625 16.9072C24.7497 17.0081 24.3003 17.2306 24.3003 16.9632C24.3003 16.6944 24.618 16.7868 24.618 16.5544C24.618 16.3221 24.3828 16.4495 24.3828 16.2787C24.3831 16.1093 24.6601 16.0814 24.6601 16.0814Z" fill="#2B2B2B"/>
<path d="M23.5655 13.0105C23.5655 13.0105 23.686 12.8152 23.8568 13.0092C24.0276 13.1981 24.0976 13.4187 24.0976 13.651C24.0976 13.8806 23.9184 14.043 23.8722 14.0346C23.8232 14.0263 23.8778 13.8317 23.8778 13.6756C23.8778 13.5195 23.6385 13.3229 23.5571 13.2598C23.4732 13.1981 23.5152 13.0547 23.5655 13.0105Z" fill="#2B2B2B"/>
<path d="M23.8932 11.9779C23.8932 11.9779 24.0682 11.8443 24.0682 12.1802C24.0682 12.5169 23.7308 12.4253 23.0644 12.9271C22.398 13.429 22.5884 13.1063 22.6178 13.0573C22.65 13.0089 23.8932 11.9779 23.8932 11.9779Z" fill="#2B2B2B"/>
<path d="M22.6582 10.9244C22.6582 10.9244 22.8655 11.2184 22.9901 11.4844C23.119 11.7482 23.2547 11.8316 23.2604 11.5033C23.2659 11.1736 23.2604 10.6976 23.2604 10.6976C23.2604 10.6976 23.252 10.4953 23.3752 10.4953C23.4955 10.4953 23.5011 10.6562 23.5824 10.5688C23.6608 10.4799 23.5851 10.3566 23.5628 10.279C23.5376 10.202 23.4536 10.0053 23.2576 10.1859C23.0602 10.3651 23.0784 10.5731 23.1036 10.818C23.1288 11.0617 23.1611 11.4775 23.0029 11.1275C22.8432 10.7782 22.7507 10.4415 22.5381 10.4415C22.3266 10.4415 22.377 11.0302 22.5128 11.0302C22.6498 11.0301 22.6582 10.9244 22.6582 10.9244Z" fill="#2B2B2B"/>
<path d="M16.7702 14.0287C16.2353 14.124 13.6867 14.0736 13.6867 14.0736C14.6086 13.6411 15.1881 13.4373 15.1881 13.4373L15.3757 13.5331L15.3812 13.3798C15.3812 13.3798 16.3836 12.9913 16.3836 12.4754C16.3836 11.9575 15.6779 11.536 15.2215 11.536C14.7653 11.536 14.474 12.1156 14.474 12.4348C14.474 12.7561 14.6238 12.908 14.6238 12.908C14.6238 12.908 13.0314 13.454 12.8263 13.608C12.6213 13.76 12.4966 14.1434 12.4966 14.3647C12.4966 14.5859 13.0614 14.5412 13.0614 14.5412C14.1981 14.5412 14.4153 14.8603 14.4153 14.8603C13.2876 15.2915 13.5745 16.1567 13.5745 16.1567C12.7212 15.885 12.5554 15.4511 12.4307 14.978C12.3055 14.5076 12.1928 13.5906 12.0548 13.0902C11.9183 12.5889 11.4459 11.3989 11.3493 11.3989C11.252 11.3989 10.9741 11.9288 11.0875 12.2586C11.2002 12.5889 11.8329 14.6588 11.8329 14.6588C11.1959 15.8796 10.2845 16.5488 9.69236 16.5488C9.10007 16.5488 9.19039 16.0056 9.19039 16.0056C10.3692 15.3883 10.8935 14.4712 10.8935 13.9057C10.8935 13.3338 10.624 12.7192 10.624 12.7192C10.624 12.7192 10.8116 12.8269 10.8116 12.6289C10.8116 12.4279 10.2544 11.8099 10.1641 11.8099C10.0724 11.8099 9.81555 12.2473 9.81555 12.4413C9.81555 12.6345 10.0318 12.6918 10.0318 12.6918C10.0318 12.6918 10.505 13.3281 10.505 13.8581C10.505 14.3873 9.29954 15.1879 9.29954 15.1879C9.29954 15.1879 9.42416 14.3088 9.26523 14.3368C9.10558 14.3647 8.77033 15.5701 8.77033 15.5701C8.77033 15.5701 7.40402 16.4226 7.32978 16.4577C7.25493 16.4899 5.95639 17.054 6.47792 17.054C7.00149 17.054 8.7473 16.2644 8.7473 16.2644C8.76338 17.2276 9.66633 17.2515 9.66633 17.2515C10.8879 17.2515 12.0259 15.4456 12.0259 15.4456C12.7635 17.1059 14.2572 17.1508 14.603 17.1508C14.9501 17.1508 15.0005 16.8428 15.0005 16.6273C15.0005 16.4116 13.9926 16.2912 13.9926 15.8152C13.9926 15.3364 15.9916 14.9081 16.4843 14.8156C16.9827 14.726 16.9967 14.5777 17.0556 14.4194C17.1116 14.2612 17.3049 13.9336 16.7702 14.0287ZM15.121 12.2663C15.1853 12.2663 15.7118 12.5329 15.7118 12.5931C15.7118 12.6533 15.1126 12.7709 15.1126 12.7709C15.0145 12.4966 15.0566 12.2663 15.121 12.2663Z" fill="#2B2B2B"/>
<path d="M10.1211 8.56349C10.1211 8.56349 10.0497 9.28449 10.0497 9.68835C10.0497 10.0944 10.3262 10.6446 10.5545 10.6446C10.7806 10.6446 11.3916 8.39701 11.8733 8.39701C12.355 8.39701 11.972 8.97167 11.972 10.1113C11.972 11.2487 12.686 10.8498 12.7651 10.8169C12.8449 10.7812 13.3755 10.4788 13.3755 9.77039C13.3755 9.06067 13.129 8.3669 13.129 8.24791C13.129 8.12893 13.3439 7.63187 13.456 7.74318C13.568 7.85521 13.7668 8.54046 13.7668 9.01785C13.7668 9.49668 13.9481 10.7181 14.5137 10.7181C15.0792 10.7181 14.6844 9.42795 14.6201 9.21732C14.5556 9.0031 14.2785 8.46909 14.3834 8.33535C14.4911 8.20233 14.6228 8.00142 14.6676 7.91398C14.7152 7.82654 14.8705 7.93845 14.9966 8.07711C15.1267 8.21781 15.3842 8.55174 15.3842 8.85904C15.3842 9.16694 15.0035 8.77988 15.0035 8.77988C15.0035 8.77988 15.2527 9.51551 15.2527 10.1602C15.2527 10.8057 14.9125 11.2655 14.5024 11.2655C14.0936 11.2655 13.6106 10.6677 13.6106 10.6677C13.6106 10.6677 13.2046 11.5252 12.3709 11.5252C11.5365 11.5252 11.6038 10.2421 11.6038 10.2421C11.6038 10.2421 11.6724 9.54849 11.5806 9.57992C11.4904 9.61002 11.2208 10.4367 11.1263 10.7033C11.0304 10.9729 10.9352 11.2556 10.6671 11.2556C10.3976 11.2556 9.82568 10.5948 9.82568 9.76044C9.82568 8.92609 10.1211 8.56349 10.1211 8.56349Z" fill="#2B2B2B"/>
<path d="M16.532 9.04075L17.1676 9.97249L17.0653 8.87834C17.0653 8.87834 16.9408 8.77687 16.9408 8.60606C16.9408 8.4367 17.0667 8.04256 17.2403 8.04256C17.4138 8.04256 17.9123 9.26961 17.9123 9.54536C17.9123 9.82052 17.6617 9.61817 17.6617 9.61817L17.7107 10.8655C17.7107 10.8655 19.0658 12.8451 19.5419 14.0679C20.0206 15.2888 19.7294 15.2636 19.6007 14.9667C19.4704 14.6643 18.5045 12.6183 17.7878 11.7467C17.7878 11.7467 18.0076 14.0399 18.0076 14.5971C18.0076 15.1544 17.8382 16.2715 17.5819 16.2715C17.3245 16.2715 17.6884 15.5072 17.6729 15.0479C17.6548 14.5859 17.3468 11.6677 17.2123 10.8655L15.825 8.93424C15.825 8.93424 15.5521 8.96854 15.5521 8.58147C15.5521 8.19585 15.4653 7.82617 15.6417 7.82617C15.8181 7.82617 16.8708 8.80553 16.8708 8.97694C16.8708 9.14642 16.532 9.04075 16.532 9.04075Z" fill="#2B2B2B"/>
<path d="M20.1552 9.36922C20.1552 9.36922 20.1341 10.1001 20.2868 11.4202C20.438 12.739 20.4603 13.6951 20.4603 14.2194C20.4603 14.7429 20.62 17.2685 17.9964 17.2685C17.9964 17.2685 17.834 17.2741 17.834 17.2098C17.834 17.1453 17.9935 17.0893 18.2231 17.011C18.4541 16.9326 20.2027 16.3978 20.0571 14.3174C19.9115 12.2392 19.6706 8.95349 19.5558 8.8471C19.5558 8.8471 19.4509 8.79108 19.4509 8.58597C19.4509 8.37955 19.8527 7.98828 19.959 7.98828C20.064 7.98828 20.4013 9.12993 20.4013 9.35039C20.4016 9.57361 20.1552 9.36922 20.1552 9.36922Z" fill="#2B2B2B"/>
<path d="M21.4249 9.53652C21.4249 9.53652 21.8687 13.4817 22.0172 14.4631C22.1655 15.4402 21.6251 15.919 21.5271 15.919C21.432 15.919 21.5497 15.583 21.5497 15.0482C21.5497 14.5135 21.0261 11.0261 20.9141 10.1029C20.7993 9.181 20.6816 9.18591 20.6816 8.62948C20.6816 8.07293 21.0316 7.8623 21.1253 7.8623C21.2164 7.8623 21.3339 8.24241 21.3339 8.24241C21.3339 8.24241 21.5859 8.98932 21.7217 9.19863C21.8589 9.40937 21.8589 9.50101 21.8589 9.57106C21.8576 9.63727 21.5859 9.67302 21.4249 9.53652Z" fill="#2B2B2B"/>
<path d="M21.1408 14.5301C21.1408 14.5301 21.1182 16.4005 21.6811 16.4005C21.6811 16.4005 21.8352 16.4984 22.2664 15.5185C22.7003 14.5414 22.9047 14.3593 23.1091 14.3593C23.3135 14.3593 23.7195 15.1713 24.1226 15.1713C24.5272 15.1713 24.6462 14.5456 24.6462 14.0934C24.6462 13.6335 24.4291 10.6774 24.4291 10.6774L23.1203 8.99746C23.1203 8.99746 23.0641 8.94144 23.0641 8.57476C23.0641 8.20797 23.011 7.97131 23.1481 7.97131C23.2867 7.97131 23.4898 8.2779 23.7488 8.4998C24.0063 8.72242 24.1127 8.80158 24.1127 8.93028C24.1127 9.05767 23.9209 8.97718 23.9209 8.97718L24.3492 9.6099L24.2819 8.85256C24.2819 8.85256 24.1616 8.68667 24.1616 8.51167C24.1616 8.33811 24.3715 7.90822 24.5004 7.90822C24.6319 7.90822 25.0378 9.03872 25.0378 9.25846C25.0378 9.48036 24.8614 9.2473 24.8614 9.2473L24.9231 10.461L25.7281 11.5594C25.7281 11.5594 25.3962 9.47484 25.3962 8.5732C25.3962 8.5732 25.3514 8.53182 25.3514 8.40096C25.3514 8.27082 25.6145 7.84033 25.7435 7.84033C25.8722 7.84033 26.2264 9.04783 26.2264 9.31723C26.2264 9.58399 26.015 9.39916 26.015 9.39916L26.2306 12.2642C26.2306 12.2642 27.261 13.7097 27.4374 14.1129C27.6138 14.5161 27.5956 15.104 27.5326 15.076C27.4696 15.0479 26.974 14.0624 26.3063 13.2721C26.3063 13.2721 26.4981 14.8995 26.1395 15.1544C26.1395 15.1544 26.1045 14.4852 26.1045 14.1435C26.1045 13.802 25.9421 12.7878 25.9421 12.7878L25.014 11.4857C25.014 11.4857 25.1581 13.956 25.1581 14.6252C25.1581 15.2973 24.8319 15.9132 24.23 15.9132C23.6267 15.9132 23.0975 15.1683 23.0975 15.1683C23.0975 15.1683 22.8902 15.3083 22.4675 16.1694C22.0392 17.0275 21.9075 17.1003 21.7255 17.1003C21.5434 17.1003 20.8155 16.6665 20.8155 15.9286C20.8103 15.188 21.1408 14.5301 21.1408 14.5301Z" fill="#2B2B2B"/>
<path d="M27.2837 8.54051C27.2837 8.54051 27.2333 8.5104 27.2333 8.36827C27.2333 8.22757 27.4853 7.84326 27.5972 7.84326C27.712 7.84326 28.2426 8.99187 28.2426 9.21101C28.2426 9.43219 27.9976 9.17814 27.9976 9.17814C27.9976 9.17814 27.9919 9.38745 28.1293 11.1066C28.2665 12.8222 29.0532 15.9316 26.7853 16.8514C24.5201 17.7739 27.2402 16.2466 27.6253 15.2974C28.0075 14.3454 27.7822 13.1051 27.6547 11.822C27.5245 10.5404 27.2837 8.54051 27.2837 8.54051Z" fill="#2B2B2B"/>
<path d="M24.1954 21.4992H21.7511L21.7441 21.2751C21.7441 21.2751 21.9107 21.117 21.9107 21.0064C21.9107 20.8944 21.7511 20.5977 21.6363 20.5977C21.5242 20.5977 21.3535 20.8468 21.3535 20.9896C21.3535 21.1353 21.5271 21.278 21.5271 21.278V21.5021L4.5603 21.4488C5.37858 22.2692 5.4563 22.2833 9.12762 22.3743C12.8005 22.4653 21.5719 22.2034 21.5719 22.2034V22.4764C21.5719 22.4764 21.3955 22.6122 21.3955 22.7563C21.3955 22.9005 21.5453 23.1441 21.6769 23.1441C21.8099 23.1441 21.8884 22.8558 21.8884 22.8558H22.755C22.755 22.8558 22.7396 23.0322 22.9524 23.0322C23.1639 23.0322 23.1723 22.832 23.1723 22.832H24.0977C24.0977 22.832 24.232 23.0406 24.4449 23.0406C24.6562 23.0406 24.9265 22.9383 24.9265 22.1866C24.9234 21.4404 24.1954 21.4992 24.1954 21.4992ZM24.0218 22.6136L23.1679 22.6249C23.1679 22.6249 23.1092 22.468 22.9495 22.468C22.79 22.468 22.7648 22.6501 22.7648 22.6501L21.9303 22.6627C21.9303 22.6627 21.8884 22.5324 21.7736 22.4625L21.7595 22.1922L24.0527 22.1362C24.0512 22.1348 23.9295 22.4232 24.0218 22.6136Z" fill="#2B2B2B"/>
</g>
</g>
</g>
<defs>
<linearGradient id="paint0_linear_504_2658" x1="15" y1="30" x2="15" y2="0" gradientUnits="userSpaceOnUse">
<stop stop-color="#FF0845"/>
<stop offset="1" stop-color="#FFB099"/>
</linearGradient>
<clipPath id="clip0_504_2658">
<rect width="30" height="30" rx="15" fill="white"/>
</clipPath>
<clipPath id="clip1_504_2658">
<rect width="34" height="34" fill="white" transform="translate(-2.27002 -3)"/>
</clipPath>
</defs>
</svg>
