<svg width="30" height="30" viewBox="0 0 30 30" fill="none" xmlns="http://www.w3.org/2000/svg">
<g clip-path="url(#clip0_504_2703)">
<rect width="30" height="30" rx="15" fill="url(#paint0_linear_504_2703)" fill-opacity="0.12"/>
<path d="M14.5001 -1C7.87358 -1 2.2073 3.17905 -0.00878906 9.03893L14.5089 10.5919L29.008 9.03893C26.7924 3.17957 21.1266 -1 14.5001 -1Z" fill="#FF9933"/>
<path d="M14.5001 30.0137C21.1266 30.0137 26.7924 25.8346 29.0085 19.9748L14.5001 18.9395L-0.00830078 19.9748C2.20727 25.8341 7.87355 30.0137 14.5001 30.0137Z" fill="#128807"/>
<path d="M29.1876 9.54582C29.1301 9.37603 29.0711 9.20675 29.008 9.03955H-0.00881553C-1.33039 12.4431 -1.33039 16.5709 -0.00881553 19.9745H29.008C30.2612 16.7485 30.3337 12.8138 29.1876 9.54582Z" fill="#F1F1F1"/>
<path d="M15.4966 14.1827L16.5961 14.5067L15.4966 14.8308L16.196 15.7393L15.1161 15.3546L15.1477 16.5007L14.4996 15.555L13.852 16.5007L13.8836 15.3546L12.8032 15.7393L13.5026 14.8308L12.4031 14.5067L13.5026 14.1827L12.8032 13.2742L13.8836 13.6588L13.852 12.5127L14.4996 13.4585L15.1477 12.5127L15.1161 13.6588L16.196 13.2742L15.4966 14.1827Z" fill="#000088"/>
<path d="M14.4997 10.3267C12.1945 10.3267 10.3196 12.2021 10.3196 14.5067C10.3196 16.8114 12.1945 18.6868 14.4997 18.6868C16.8048 18.6868 18.6797 16.8114 18.6797 14.5067C18.6797 12.2021 16.8048 10.3267 14.4997 10.3267ZM14.4997 17.1339C13.0507 17.1339 11.8726 15.9552 11.8726 14.5067C11.8726 13.0583 13.0507 11.8796 14.4997 11.8796C15.9486 11.8796 17.1268 13.0583 17.1268 14.5067C17.1268 15.9552 15.9486 17.1339 14.4997 17.1339Z" fill="#000088"/>
</g>
<defs>
<linearGradient id="paint0_linear_504_2703" x1="15" y1="30" x2="15" y2="0" gradientUnits="userSpaceOnUse">
<stop stop-color="#FF0845"/>
<stop offset="1" stop-color="#FFB099"/>
</linearGradient>
<clipPath id="clip0_504_2703">
<rect width="30" height="30" rx="15" fill="white"/>
</clipPath>
</defs>
</svg>
