<svg width="360" height="185" viewBox="0 0 360 185" fill="none" xmlns="http://www.w3.org/2000/svg">
<path d="M288.402 180.538H355.339C355.339 156.826 350.687 133.805 341.513 112.116C336.705 100.748 330.769 90.013 323.768 79.9912L268.441 117.789C281.009 135.534 288.402 157.189 288.402 180.538Z" fill="#009245" stroke="url(#paint0_linear_526_4292)" stroke-width="7.64993" stroke-miterlimit="10"/>
<path d="M17.6507 112.115C8.47673 133.805 3.8252 156.826 3.8252 180.538H70.7621C70.7621 156.721 78.4541 134.668 91.4826 116.729L36.1444 78.9229C28.8154 89.2481 22.6299 100.343 17.6507 112.115Z" fill="#FF0000" stroke="url(#paint1_linear_526_4292)" stroke-width="7.64993" stroke-miterlimit="10"/>
<path d="M179.582 71.7181C193.666 71.7181 207.135 74.4082 219.5 79.3011L243.568 16.8029C223.185 8.82462 201.684 4.78125 179.582 4.78125C157.479 4.78125 135.978 8.82462 115.595 16.8029L139.663 79.3011C152.028 74.4082 165.497 71.7181 179.582 71.7181Z" fill="#FFE700" stroke="url(#paint2_linear_526_4292)" stroke-width="9.56241" stroke-miterlimit="10"/>
<path d="M268.442 117.79L323.768 79.9914C317.877 71.5587 311.232 63.6303 303.861 56.2596C287.731 40.1292 268.938 27.4611 248.005 18.6071C246.532 17.9844 245.053 17.3842 243.569 16.8032L219.5 79.3014C239.314 87.1416 256.295 100.639 268.442 117.79Z" fill="#39C24A" stroke="url(#paint3_linear_526_4292)" stroke-width="7.64993" stroke-miterlimit="10"/>
<path d="M139.663 79.3014L115.595 16.8032C114.111 17.3842 112.631 17.9844 111.159 18.6071C90.226 27.4611 71.4333 40.1292 55.3029 56.2596C48.2437 63.3188 41.8476 70.888 36.144 78.9233L91.4823 116.73C103.573 100.082 120.26 86.9793 139.663 79.3014Z" fill="#F18124" stroke="url(#paint4_linear_526_4292)" stroke-width="7.64993" stroke-miterlimit="10"/>
<path d="M35.1514 153.936L36.5697 149.252L47.0703 149.601L38.1519 144.026L39.5826 139.301L54.0847 143.692L53.1916 146.642L41.1286 142.989L52.1658 150.03L51.5415 152.092L38.4607 151.874L50.5034 155.521L49.6537 158.327L35.1514 153.936Z" fill="#1A1A1A"/>
<path d="M40.4478 136.444L41.4551 133.117L55.9572 137.508L54.9499 140.835L40.4478 136.444Z" fill="#1A1A1A"/>
<path d="M42.3262 130.239L43.4849 126.412L55.3806 125.245L44.8074 122.044L45.6696 119.196L60.1717 123.587L59.013 127.414L47.0909 128.595L57.6842 131.803L56.8283 134.629L42.3262 130.239Z" fill="#1A1A1A"/>
<path d="M73.6724 75.8656L76.3984 73.7393L83.9843 83.4648L87.8727 80.4318L89.5555 82.5893L82.9408 87.7486L73.6724 75.8656Z" fill="#1A1A1A"/>
<path d="M85.4507 66.3423C87.0339 65.1074 88.6906 64.6849 90.4207 65.0751C92.1505 65.4654 93.77 66.6276 95.2789 68.5621C96.7921 70.5021 97.5252 72.3561 97.4781 74.1232C97.4311 75.8907 96.6156 77.3918 95.0324 78.6267C93.438 79.8704 91.7818 80.2994 90.064 79.913C88.346 79.5271 86.7284 78.3611 85.2107 76.4153C83.7017 74.4808 82.9689 72.6271 83.0115 70.8542C83.0544 69.0813 83.8674 67.5773 85.4507 66.3423ZM87.0161 68.3492C86.3303 68.8841 86.0828 69.6558 86.2729 70.6641C86.463 71.6724 87.0736 72.8371 88.1041 74.1584C89.1347 75.4797 90.1147 76.3541 91.0439 76.7812C91.9736 77.2084 92.7811 77.1545 93.4669 76.6198C94.1527 76.0848 94.4013 75.3149 94.2135 74.3091C94.0255 73.3039 93.4162 72.1403 92.3856 70.819C91.3549 69.4977 90.3723 68.6233 89.438 68.1953C88.5036 67.7675 87.6962 67.8187 87.0161 68.3492Z" fill="#1A1A1A"/>
<path d="M91.5425 61.9272L94.1264 59.9116L102.75 67.7251L97.0533 57.6287L100.273 55.1174L108.812 62.9961L103.275 52.7758L105.65 50.9233L112.678 64.5542L109.475 67.0523L100.457 58.767L106.422 69.4331L103.203 71.9442L91.5425 61.9272Z" fill="#1A1A1A"/>
<path d="M136.551 37.6768C138.266 37.1156 139.997 36.5899 141.735 36.1032C143.566 38.9788 145.347 41.8793 147.084 44.8126C147.19 41.4013 147.351 37.9971 147.567 34.5912C149.328 34.1714 151.103 33.7883 152.881 33.4448C153.816 38.2331 154.752 43.0214 155.687 47.8099C154.496 48.0426 153.902 48.1661 152.715 48.4282C151.84 44.4653 150.966 40.5026 150.091 36.5398C149.741 40.7666 149.483 44.9909 149.317 49.2287C148.492 49.4353 148.08 49.5422 147.257 49.7631C145.038 46.1504 142.742 42.5966 140.363 39.0872C141.525 42.9684 142.686 46.8498 143.848 50.731C142.735 51.0641 142.18 51.2372 141.074 51.5968C139.566 46.9569 138.058 42.3168 136.551 37.6768Z" fill="#1A1A1A"/>
<path d="M156.11 32.854C159.221 32.3283 162.349 31.8888 165.489 31.5767C165.588 32.5482 165.637 33.034 165.736 34.0053C163.897 34.1884 162.056 34.4134 160.227 34.6789C160.425 36.0656 160.524 36.7589 160.722 38.1457C162.75 37.8559 163.766 37.7306 165.801 37.5191C165.903 38.4943 165.953 38.982 166.055 39.9572C164.057 40.1647 163.059 40.2878 161.069 40.5722C161.282 42.0651 161.389 42.8113 161.603 44.3042C163.382 44.0458 165.174 43.8284 166.965 43.654C167.063 44.638 167.112 45.1298 167.21 46.1138C164.318 46.4298 161.45 46.8176 158.577 47.2812C157.755 42.4721 156.932 37.6629 156.11 32.854Z" fill="#1A1A1A"/>
<path d="M168.469 31.3054C170.16 31.17 171.006 31.1153 172.7 31.0315C174.986 30.8827 177.595 31.1706 179.391 32.6436C180.986 33.9509 181.48 36.2004 181.446 38.1877C181.412 40.1558 180.814 42.2601 179.311 43.6235C177.736 45.0525 175.519 45.5796 173.424 45.65C171.908 45.7249 171.15 45.7739 169.637 45.8952C169.247 41.0319 168.858 36.1687 168.469 31.3054ZM172.397 33.4912C172.567 36.7277 172.737 39.9644 172.908 43.2009C173.091 43.1913 173.182 43.1865 173.365 43.1777C174.806 43.1071 175.874 42.6724 176.591 41.8451C177.307 41.0181 177.664 39.8024 177.64 38.1886C177.616 36.5341 177.223 35.3123 176.443 34.5335C175.663 33.7547 174.471 33.3887 172.89 33.4661C172.693 33.4759 172.594 33.4809 172.397 33.4912Z" fill="#1A1A1A"/>
<path d="M184.27 30.9404C185.791 30.9917 186.552 31.0276 188.073 31.1206C187.775 35.9903 187.478 40.8601 187.18 45.7298C185.82 45.6466 185.139 45.6145 183.777 45.5686C183.941 40.6926 184.105 35.8165 184.27 30.9404Z" fill="#1A1A1A"/>
<path d="M191.265 31.3525C192.793 31.4812 193.557 31.556 195.081 31.7268C194.734 34.8283 194.387 37.9299 194.039 41.0314C193.912 42.1713 193.978 42.9764 194.232 43.448C194.486 43.9198 194.978 44.1985 195.711 44.2924C196.458 44.3882 197.014 44.2421 197.383 43.847C197.753 43.4519 198.022 42.6915 198.185 41.5633C198.632 38.4744 199.079 35.3858 199.526 32.2969C200.967 32.5054 201.687 32.6192 203.123 32.8657C202.617 35.8165 202.111 38.7674 201.605 41.7184C201.266 43.6945 200.568 45.0775 199.542 45.8861C198.515 46.6948 197.117 46.9637 195.314 46.7339C193.517 46.5048 192.239 45.8958 191.453 44.8593C190.667 43.8227 190.343 42.3076 190.512 40.3026C190.763 37.3195 191.014 34.336 191.265 31.3525Z" fill="#1A1A1A"/>
<path d="M206.282 33.4453C208.044 33.7857 209.804 34.1652 211.55 34.5808C211.752 37.9834 211.901 41.3838 211.995 44.7911C213.744 41.8599 215.538 38.9626 217.383 36.0907C219.136 36.581 220.883 37.1112 222.612 37.6771C221.104 42.3171 219.597 46.9572 218.089 51.5973C216.926 51.2193 216.343 51.0377 215.173 50.689C216.332 46.7998 217.491 42.9106 218.65 39.0215C216.287 42.5449 214.008 46.1117 211.804 49.736C210.981 49.5159 210.569 49.4094 209.744 49.2034C209.559 44.9686 209.281 40.7477 208.91 36.5252C208.041 40.4823 207.172 44.4396 206.304 48.3967C205.174 48.1489 204.609 48.0314 203.476 47.8102C204.411 43.0219 205.347 38.2336 206.282 33.4453Z" fill="#1A1A1A"/>
<path d="M254.203 49.8477L256.899 52.0482L253.126 56.6716L255.988 59.0071L259.761 54.3837L262.457 56.5842L252.865 68.337L250.169 66.1365L254.246 61.1409L251.385 58.8053L247.308 63.8009L244.611 61.6004L254.203 49.8477Z" fill="#1A1A1A"/>
<path d="M264.79 58.4878L267.486 60.6883L257.894 72.4411L255.198 70.2406L264.79 58.4878Z" fill="#1A1A1A"/>
<path d="M278.085 69.7519L276.178 71.7508C275.968 71.2308 275.696 70.7539 275.361 70.3197C275.027 69.886 274.606 69.4616 274.098 69.0478C273.007 68.1567 271.873 67.824 270.697 68.0492C269.521 68.2743 268.399 69.0405 267.333 70.3473C266.248 71.6761 265.674 72.9003 265.61 74.0194C265.547 75.1386 265.997 76.092 266.962 76.8796C267.122 77.01 267.296 77.1267 267.483 77.229C267.67 77.3315 267.877 77.4194 268.102 77.4927L270.363 74.7219L268.858 73.4933L270.478 71.5084L274.539 74.8225L269.408 81.1082C268.768 80.9252 268.094 80.6343 267.385 80.2356C266.677 79.8366 265.968 79.3472 265.256 78.7668C263.442 77.2861 262.456 75.6221 262.297 73.7743C262.137 71.9262 262.82 70.0679 264.346 68.1986C265.957 66.2247 267.739 65.1212 269.694 64.8877C271.648 64.6546 273.582 65.3186 275.495 66.8803C276.019 67.3078 276.496 67.7614 276.926 68.2415C277.357 68.7215 277.743 69.225 278.085 69.7519Z" fill="#1A1A1A"/>
<path d="M280.71 71.4819L283.407 73.6824L279.633 78.3059L282.495 80.6414L286.268 76.018L288.965 78.2185L279.373 89.9712L276.676 87.7707L280.754 82.7751L277.892 80.4396L273.815 85.4352L271.119 83.2347L280.71 71.4819Z" fill="#1A1A1A"/>
<path d="M312.133 117.656L313.626 122.078L305.282 127.621L315.291 127.01L316.797 131.47L303.109 136.092L302.169 133.308L313.555 129.463L301.089 130.11L300.432 128.164L310.706 121.089L299.339 124.927L298.444 122.279L312.133 117.656Z" fill="#1A1A1A"/>
<path d="M318.687 137.066L319.914 140.698L307.66 149.568L306.56 146.312L309.347 144.491L307.861 140.089L304.527 140.292L303.496 137.238L318.687 137.066ZM316.585 139.74L310.464 139.982L311.508 143.074L316.585 139.74Z" fill="#1A1A1A"/>
<path d="M321.631 145.784L322.815 149.29L319.191 152.671L324.142 153.22L325.261 156.534L317.613 155.21L311.654 161.397L310.473 157.9L314.609 154.004L308.922 153.306L307.79 149.953L316.332 151.415L321.631 145.784Z" fill="#1A1A1A"/>
<defs>
<linearGradient id="paint0_linear_526_4292" x1="311.89" y1="79.9912" x2="311.89" y2="180.538" gradientUnits="userSpaceOnUse">
<stop offset="0.0894782" stop-color="#FDC83A"/>
<stop offset="0.253047" stop-color="#FDECBA"/>
<stop offset="0.99481" stop-color="#F1B42D"/>
</linearGradient>
<linearGradient id="paint1_linear_526_4292" x1="47.6539" y1="78.9229" x2="47.6539" y2="180.538" gradientUnits="userSpaceOnUse">
<stop offset="0.0894782" stop-color="#FDC83A"/>
<stop offset="0.253047" stop-color="#FDECBA"/>
<stop offset="0.99481" stop-color="#F1B42D"/>
</linearGradient>
<linearGradient id="paint2_linear_526_4292" x1="179.582" y1="4.78125" x2="179.582" y2="79.3011" gradientUnits="userSpaceOnUse">
<stop offset="0.0894782" stop-color="#FDC83A"/>
<stop offset="0.253047" stop-color="#FDECBA"/>
<stop offset="0.99481" stop-color="#F1B42D"/>
</linearGradient>
<linearGradient id="paint3_linear_526_4292" x1="271.634" y1="16.8032" x2="271.634" y2="117.79" gradientUnits="userSpaceOnUse">
<stop offset="0.0894782" stop-color="#FDC83A"/>
<stop offset="0.253047" stop-color="#FDECBA"/>
<stop offset="0.99481" stop-color="#F1B42D"/>
</linearGradient>
<linearGradient id="paint4_linear_526_4292" x1="87.9037" y1="16.8032" x2="87.9037" y2="116.73" gradientUnits="userSpaceOnUse">
<stop offset="0.0894782" stop-color="#FDC83A"/>
<stop offset="0.253047" stop-color="#FDECBA"/>
<stop offset="0.99481" stop-color="#F1B42D"/>
</linearGradient>
</defs>
</svg>
