<svg width="30" height="30" viewBox="0 0 30 30" fill="none" xmlns="http://www.w3.org/2000/svg">
<g clip-path="url(#clip0_504_2531)">
<rect width="30" height="30" rx="15" fill="url(#paint0_linear_504_2531)" fill-opacity="0.12"/>
<g clip-path="url(#clip1_504_2531)">
<path d="M15 30C23.2843 30 30 23.2843 30 15C30 6.71573 23.2843 0 15 0C6.71573 0 0 6.71573 0 15C0 23.2843 6.71573 30 15 30Z" fill="#D80027"/>
<path d="M16.5489 11.348C16.208 12.7659 15.6023 12.4955 15.3051 13.732C13.5541 13.311 12.4758 11.5503 12.8968 9.79921C13.3176 8.04826 15.0785 6.9699 16.8295 7.39089C16.235 9.86396 16.8539 10.0798 16.5489 11.348Z" fill="#F0F0F0"/>
<path d="M12.0052 12.3988C13.2484 13.1611 12.804 13.6537 13.8881 14.3185C12.9466 15.8537 10.9389 16.3351 9.40362 15.3937C7.86841 14.4522 7.38694 12.4444 8.32843 10.9092C10.4967 12.2388 10.8931 11.7169 12.0052 12.3988Z" fill="#F0F0F0"/>
<path d="M11.6005 17.0447C12.7098 16.0979 13.0408 16.6728 14.0081 15.8472C15.1773 17.2169 15.0147 19.2752 13.645 20.4444C12.2752 21.6137 10.2169 21.4508 9.04785 20.0812C10.9823 18.4299 10.6084 17.8914 11.6005 17.0447Z" fill="#F0F0F0"/>
<path d="M15.8939 18.8655C15.3361 17.518 15.985 17.3807 15.4988 16.2057C17.1628 15.5171 19.0701 16.3077 19.7588 17.9717C20.4475 19.6357 19.6567 21.543 17.9927 22.2317C17.0202 19.8816 16.3927 20.0708 15.8939 18.8655Z" fill="#F0F0F0"/>
<path d="M18.9522 15.3446C17.4983 15.4587 17.5681 14.7989 16.3004 14.8984C16.1596 13.1031 17.5011 11.5334 19.2964 11.3924C21.0918 11.2519 22.6615 12.5932 22.8022 14.3886C20.2665 14.5874 20.2525 15.2427 18.9522 15.3446Z" fill="#F0F0F0"/>
</g>
</g>
<defs>
<linearGradient id="paint0_linear_504_2531" x1="15" y1="30" x2="15" y2="0" gradientUnits="userSpaceOnUse">
<stop stop-color="#FF0845"/>
<stop offset="1" stop-color="#FFB099"/>
</linearGradient>
<clipPath id="clip0_504_2531">
<rect width="30" height="30" rx="15" fill="white"/>
</clipPath>
<clipPath id="clip1_504_2531">
<rect width="30" height="30" fill="white"/>
</clipPath>
</defs>
</svg>
