<svg width="30" height="30" viewBox="0 0 30 30" fill="none" xmlns="http://www.w3.org/2000/svg">
<g clip-path="url(#clip0_504_2508)">
<rect width="30" height="30" rx="15" fill="url(#paint0_linear_504_2508)" fill-opacity="0.12"/>
<g clip-path="url(#clip1_504_2508)">
<path d="M15 30C23.2843 30 30 23.2843 30 15C30 6.71573 23.2843 0 15 0C6.71573 0 0 6.71573 0 15C0 23.2843 6.71573 30 15 30Z" fill="#D80027"/>
<path d="M14.9999 7.82617L16.6187 12.8083H21.8573L17.6192 15.8874L19.238 20.8697L14.9999 17.7905L10.7618 20.8697L12.3807 15.8874L8.14258 12.8083H13.3811L14.9999 7.82617Z" fill="#FFDA44"/>
</g>
</g>
<defs>
<linearGradient id="paint0_linear_504_2508" x1="15" y1="30" x2="15" y2="0" gradientUnits="userSpaceOnUse">
<stop stop-color="#FF0845"/>
<stop offset="1" stop-color="#FFB099"/>
</linearGradient>
<clipPath id="clip0_504_2508">
<rect width="30" height="30" rx="15" fill="white"/>
</clipPath>
<clipPath id="clip1_504_2508">
<rect width="30" height="30" fill="white"/>
</clipPath>
</defs>
</svg>
