<svg width="30" height="30" viewBox="0 0 30 30" fill="none" xmlns="http://www.w3.org/2000/svg">
<g clip-path="url(#clip0_504_2732)">
<rect width="30" height="30" rx="15" fill="url(#paint0_linear_504_2732)" fill-opacity="0.12"/>
<g clip-path="url(#clip1_504_2732)">
<path d="M14.8196 30C23.1038 30 29.8196 23.2843 29.8196 15C29.8196 6.71572 23.1038 0 14.8196 0C6.53531 0 -0.18042 6.71572 -0.18042 15C-0.18042 23.2843 6.53531 30 14.8196 30Z" fill="#F0F0F0"/>
<path fill-rule="evenodd" clip-rule="evenodd" d="M27.6178 7.16675H14.1678V3.25342H24.157C25.5294 4.34663 26.7006 5.67094 27.6178 7.16675ZM29.8195 15.0001H14.1678V11.0868H29.3028C29.6465 12.3628 29.8203 13.6786 29.8195 15.0001ZM14.8195 30.0001C18.3495 30.0001 21.5945 28.7801 24.157 26.7393H5.49035C8.04451 28.7801 11.2895 30.0001 14.8195 30.0001ZM27.6195 22.8335H2.02118C1.27505 21.6164 0.707587 20.2985 0.336182 18.9201H29.3045C28.9332 20.2985 28.3658 21.6165 27.6195 22.8335Z" fill="#D80027"/>
<path d="M14.8196 15V0C6.53625 0 -0.18042 6.71667 -0.18042 15H14.8196Z" fill="#0052B4"/>
<path fill-rule="evenodd" clip-rule="evenodd" d="M6.08548 9.13091C6.08548 11.1794 7.74613 12.8401 9.79465 12.8401C10.4338 12.8401 11.0338 12.6776 11.5588 12.3942C10.707 13.2297 9.56115 13.6972 8.36798 13.6959C5.84718 13.695 3.8039 11.6517 3.80298 9.13091C3.8039 6.61012 5.84718 4.56684 8.36798 4.56592C9.56115 4.56466 10.707 5.03211 11.5588 5.86759C11.0171 5.5741 10.4107 5.42084 9.79465 5.42175C7.74613 5.42175 6.08548 7.0824 6.08548 9.13091ZM11.5063 7.89842L10.8396 6.52175L10.1863 7.89842L8.69881 7.55509L9.36548 8.92841L8.16965 9.87675L9.65881 10.2126L9.65464 11.7392L10.8463 10.7842L12.038 11.7392L12.0338 10.2126L13.523 9.87675L12.3271 8.92841L12.9938 7.55509L11.5063 7.89842Z" fill="#FFDA44"/>
</g>
</g>
<defs>
<linearGradient id="paint0_linear_504_2732" x1="15" y1="30" x2="15" y2="0" gradientUnits="userSpaceOnUse">
<stop stop-color="#FF0845"/>
<stop offset="1" stop-color="#FFB099"/>
</linearGradient>
<clipPath id="clip0_504_2732">
<rect width="30" height="30" rx="15" fill="white"/>
</clipPath>
<clipPath id="clip1_504_2732">
<rect width="30" height="30" fill="white" transform="translate(-0.18042)"/>
</clipPath>
</defs>
</svg>
