<svg width="24" height="24" viewBox="0 0 24 24" fill="none" xmlns="http://www.w3.org/2000/svg">
<path d="M12 1.5C9.9233 1.5 7.89323 2.11581 6.16652 3.26957C4.4398 4.42332 3.09399 6.0632 2.29927 7.98182C1.50455 9.90045 1.29661 12.0116 1.70176 14.0484C2.1069 16.0852 3.10693 17.9562 4.57538 19.4246C6.04383 20.8931 7.91476 21.8931 9.95156 22.2982C11.9884 22.7034 14.0996 22.4955 16.0182 21.7007C17.9368 20.906 19.5767 19.5602 20.7304 17.8335C21.8842 16.1068 22.5 14.0767 22.5 12C22.5 9.21523 21.3938 6.54451 19.4246 4.57538C17.4555 2.60625 14.7848 1.5 12 1.5ZM17.4075 9.1575L10.6575 15.9075C10.5874 15.977 10.5043 16.032 10.4129 16.0693C10.3216 16.1067 10.2237 16.1256 10.125 16.125H10.08C9.97504 16.118 9.87272 16.089 9.77969 16.0399C9.68666 15.9908 9.60499 15.9227 9.54 15.84L6.54 12.09C6.46872 12.0145 6.41389 11.925 6.379 11.8272C6.34411 11.7293 6.32991 11.6253 6.33731 11.5217C6.34471 11.4181 6.37355 11.3172 6.42199 11.2254C6.47043 11.1335 6.53742 11.0527 6.61872 10.9881C6.70002 10.9234 6.79386 10.8764 6.89429 10.8499C6.99471 10.8235 7.09954 10.8182 7.20213 10.8343C7.30472 10.8505 7.40284 10.8878 7.49026 10.9438C7.57768 10.9999 7.65251 11.0735 7.71 11.16L10.185 14.25L16.3425 8.0925C16.4837 7.95127 16.6753 7.87193 16.875 7.87193C17.0747 7.87193 17.2663 7.95127 17.4075 8.0925C17.5487 8.23373 17.6281 8.42527 17.6281 8.625C17.6281 8.82473 17.5487 9.01627 17.4075 9.1575Z" fill="white"/>
</svg>
