<svg width="336" height="336" viewBox="0 0 336 336" fill="none" xmlns="http://www.w3.org/2000/svg">
<path d="M86.3333 225.736C84.8555 224.258 82.4444 224.258 80.9667 225.736L3.96667 302.736C1.32222 305.38 0 308.802 0 312.225C0 315.647 1.32222 319.069 3.96667 321.714L14.2333 331.98C16.8778 334.625 20.3 335.947 23.7222 335.947C27.1444 335.947 30.5667 334.625 33.2111 331.98L110.211 254.98C111.689 253.502 111.689 251.091 110.211 249.614C103.211 242.614 94.2667 233.669 86.3333 225.736Z" fill="#3E4F55"/>
<path d="M15.5327 291.08L20.9216 285.691L50.2307 315L44.8418 320.389L15.5327 291.08Z" fill="#303D42"/>
<path d="M36.6099 269.974L41.9988 264.585L71.3078 293.894L65.9189 299.283L36.6099 269.974Z" fill="#303D42"/>
<path d="M82.5227 180.547L262.034 1.11352C263.201 -0.053145 264.912 -0.286478 266.312 0.335744L297.034 11.8469C300.145 13.0135 303.178 14.4913 305.901 16.2802C308.623 18.0691 311.189 20.0913 313.523 22.4246C315.856 24.758 317.878 27.3246 319.667 30.0469C321.456 32.7691 322.934 35.7246 324.101 38.9135L335.689 69.8691C336.312 71.4246 335.767 73.1357 334.523 74.1469L155.167 253.658C153.689 255.136 151.278 255.136 149.8 253.658L82.3671 186.225C80.8893 184.747 80.8893 182.336 82.3671 180.858C82.3671 180.702 82.4449 180.625 82.5227 180.547Z" fill="#3E4F55"/>
<path d="M312.9 69.4801L155.166 227.291C153.689 228.769 151.277 228.769 149.8 227.291L108.655 186.225C107.177 184.747 107.177 182.336 108.655 180.858C108.733 180.78 108.811 180.702 108.889 180.625L266.7 22.8135C267.866 21.6468 269.577 21.4135 270.977 22.0357L290.422 29.3468C294.233 30.7468 297.577 32.9246 300.3 35.6468C303.022 38.369 305.2 41.7135 306.6 45.5246L313.989 65.2024C314.611 66.7579 314.144 68.469 312.9 69.4801Z" fill="#FFDA2D"/>
<path d="M153.455 254.591C155.478 254.047 156.644 251.947 156.1 249.925L86.022 179.847C83.9998 179.303 81.8998 180.469 81.3554 182.491L71.4776 218.58C71.0109 219.903 71.322 221.536 72.4109 222.547L113.4 263.536C114.333 264.469 115.733 264.936 117.133 264.547L153.455 254.591Z" fill="#FFDA2D"/>
<path d="M241.811 81.3803C240.333 79.9025 237.922 79.9025 236.444 81.3803C234.966 82.8581 234.966 85.2692 236.444 86.747L249.278 99.5025C250.755 100.98 253.167 100.98 254.644 99.5025C256.122 98.0247 256.122 95.6136 254.644 94.1359L241.811 81.3803Z" fill="#00FF26"/>
<path d="M226.411 96.7026C224.933 95.2248 222.522 95.2248 221.044 96.7026C219.566 98.1803 219.566 100.591 221.044 102.069L233.877 114.903C235.355 116.38 237.766 116.38 239.244 114.903C240.722 113.425 240.722 111.014 239.244 109.536L226.411 96.7026Z" fill="#00FF26"/>
<path d="M211.088 112.102C209.611 110.625 207.199 110.625 205.722 112.102C204.244 113.58 204.244 115.991 205.722 117.469L218.555 130.225C220.033 131.702 222.444 131.702 223.922 130.225C225.399 128.747 225.399 126.336 223.922 124.858L211.088 112.102Z" fill="#00FF26"/>
<path d="M195.689 127.425C194.211 125.947 191.8 125.947 190.322 127.425C188.844 128.903 188.844 131.314 190.322 132.791L203.156 145.547C204.633 147.025 207.044 147.025 208.522 145.547C210 144.069 210 141.658 208.522 140.18L195.689 127.425Z" fill="#00FF26"/>
<path d="M180.288 142.825C178.811 141.347 176.4 141.347 174.922 142.825C173.444 144.302 173.444 146.714 174.922 148.191L187.755 161.025C189.233 162.502 191.644 162.502 193.122 161.025C194.6 159.547 194.6 157.136 193.122 155.658L180.288 142.825Z" fill="#00FF26"/>
<path d="M140.622 89.6247C140.622 91.7247 142.333 93.4358 144.433 93.4358C146.533 93.4358 148.244 91.7247 148.244 89.6247C148.244 79.9802 152.133 71.1913 158.511 64.8913C164.811 58.5913 173.6 54.6247 183.244 54.6247C185.344 54.6247 187.055 52.9136 187.055 50.8136C187.055 48.7136 185.344 47.0024 183.244 47.0024C171.5 47.0024 160.844 51.7469 153.067 59.5247C145.367 67.2247 140.622 77.8802 140.622 89.6247Z" fill="#77D4F5"/>
<path d="M121.955 87.6024C121.955 89.7024 123.666 91.4135 125.766 91.4135C127.866 91.4135 129.577 89.7024 129.577 87.6024C129.577 73.3691 135.333 60.458 144.666 51.1247C154 41.7913 166.911 36.0358 181.144 36.0358C183.244 36.0358 184.955 34.3247 184.955 32.2247C184.955 30.1247 183.244 28.4136 181.144 28.4136C164.811 28.4136 150.033 35.0247 139.3 45.758C128.566 56.4136 121.955 71.1913 121.955 87.6024Z" fill="#77D4F5"/>
<path d="M246.322 187.702C244.222 187.702 242.511 189.414 242.511 191.514C242.511 193.614 244.222 195.325 246.322 195.325C258.066 195.325 268.722 190.58 276.5 182.88C284.2 175.18 288.944 164.525 288.944 152.702C288.944 150.602 287.233 148.891 285.133 148.891C283.033 148.891 281.322 150.602 281.322 152.702C281.322 162.347 277.433 171.136 271.055 177.436C264.677 183.814 255.966 187.702 246.322 187.702Z" fill="#77D4F5"/>
<path d="M248.344 206.369C246.244 206.369 244.533 208.08 244.533 210.18C244.533 212.28 246.244 213.991 248.344 213.991C264.678 213.991 279.455 207.38 290.189 196.647C300.922 185.913 307.533 171.136 307.533 154.802C307.533 152.702 305.822 150.991 303.722 150.991C301.622 150.991 299.911 152.702 299.911 154.802C299.911 169.036 294.155 181.947 284.822 191.28C275.489 200.536 262.655 206.369 248.344 206.369Z" fill="#77D4F5"/>
<path fill-rule="evenodd" clip-rule="evenodd" d="M296.878 41.7134L304.267 61.3912C304.889 62.9468 304.344 64.6579 303.1 65.669L145.678 223.247L149.722 227.291C151.2 228.769 153.611 228.769 155.089 227.291L312.9 69.4801C314.144 68.469 314.611 66.7579 314.067 65.2023L306.678 45.5246C305.278 41.7134 303.1 38.369 300.378 35.6468C297.655 32.9246 294.311 30.7468 290.5 29.3468L282.8 26.469C285.755 27.869 288.4 29.6579 290.655 31.9134C293.3 34.6357 295.478 37.9801 296.878 41.7134Z" fill="#FFC429"/>
</svg>
