<svg width="101" height="29" viewBox="0 0 101 29" fill="none" xmlns="http://www.w3.org/2000/svg">
<path d="M99.4399 5.37648L15.0683 5.94297C14.6598 5.94565 14.3424 6.29946 14.3835 6.70586L15.984 22.5054C16.0251 22.9118 16.4073 23.1947 16.8079 23.1153L99.579 6.74926C100.404 6.58632 100.281 5.37094 99.4399 5.37648Z" fill="url(#paint0_linear_526_4326)" fill-opacity="0.8"/>
<path d="M14.1445 1C21.4038 1.00015 27.2881 6.88525 27.2881 14.1445C27.2879 21.4037 21.4037 27.2879 14.1445 27.2881C6.88525 27.2881 1.00015 21.4038 1 14.1445C1 6.88516 6.88516 1 14.1445 1Z" fill="url(#paint1_linear_526_4326)" stroke="url(#paint2_linear_526_4326)" stroke-width="2" stroke-miterlimit="10"/>
<defs>
<linearGradient id="paint0_linear_526_4326" x1="12.6647" y1="8.63104" x2="102.968" y2="50.3749" gradientUnits="userSpaceOnUse">
<stop stop-color="#DA8207"/>
<stop offset="0.0932979" stop-color="#DD9318"/>
<stop offset="0.230387" stop-color="#FFCB3C"/>
<stop offset="0.678823" stop-color="#FFCB3C"/>
<stop offset="0.799224" stop-color="#E39C1E"/>
<stop offset="0.835628" stop-color="#FBC63A"/>
</linearGradient>
<linearGradient id="paint1_linear_526_4326" x1="1.51423" y1="6.45289" x2="32.2737" y2="9.39626" gradientUnits="userSpaceOnUse">
<stop stop-color="#DA8207"/>
<stop offset="0.0932979" stop-color="#DD9318"/>
<stop offset="0.230387" stop-color="#FFCB3C"/>
<stop offset="0.678823" stop-color="#FFCB3C"/>
<stop offset="0.799224" stop-color="#E39C1E"/>
<stop offset="0.835628" stop-color="#FBC63A"/>
</linearGradient>
<linearGradient id="paint2_linear_526_4326" x1="14.1443" y1="2" x2="14.1443" y2="26.2885" gradientUnits="userSpaceOnUse">
<stop offset="0.0894782" stop-color="#FDC83A"/>
<stop offset="0.253047" stop-color="#FDECBA"/>
<stop offset="0.99481" stop-color="#F1B42D"/>
</linearGradient>
</defs>
</svg>
